<?xml version="1.0" encoding="utf-8"?>
<svg viewBox="0 0 512 512" style="enable-background:new 0 0 512 512;" xmlns="http://www.w3.org/2000/svg">
  <path d="M 438.8 320.6 C 435.2 317.5 291.6 213.4 291.6 213.4 C 291.4 213.2 291.2 213 291.1 212.9 C 285.6 207.3 285.9 202.5 285.5 194.1 C 285.5 194.1 284.6 125.1 283.3 102.1 C 282 79.1 270 64 256 64 C 256 64 256 64 256 64 C 256 64 256 64 256 64 C 242 64 230.1 79 228.8 102 C 227.5 125 226.6 194 226.6 194 C 226.2 202.4 226.5 207.2 221 212.8 C 220.8 213 220.6 213.2 220.5 213.3 C 220.5 213.3 77 317.4 73.3 320.5 C 69.6 323.6 64.1 328.3 64.1 338.7 C 64.1 350.9 67.7 352.4 74.7 350.3 C 74.7 350.3 214.9 310.8 220.1 309.5 C 225.3 308.2 228 310.1 228.4 317 C 228.8 323.9 229.2 363.4 229.3 368 C 229.4 372.6 228.7 372.7 226.4 375.4 L 194.4 416.2 C 192.7 418.2 191.7 420.7 191.7 423.5 C 191.7 423.5 191.7 429.6 191.7 435.9 C 191.7 442.2 194.5 443.2 199.9 440.8 C 205.3 438.4 232.5 423.4 232.5 423.4 C 233.2 423.1 237.1 421.5 238.9 421.5 C 243.1 421.5 246.9 421.4 247.7 427.7 C 249 439.1 252.6 448 256.2 448 C 256.2 448 256.2 448 256.2 448 C 256.2 448 256.2 448 256.2 448 C 259.8 448 263.4 439.1 264.7 427.7 C 265.4 421.4 269.3 421.5 273.5 421.5 C 275.3 421.5 279.2 423.1 279.9 423.4 C 279.9 423.4 307.1 438.4 312.5 440.8 C 317.9 443.2 320.7 442.2 320.7 435.9 C 320.7 429.6 320.7 423.5 320.7 423.5 C 320.7 420.7 319.7 418.1 318 416.2 L 286 375.4 C 283.7 372.7 283.1 372.5 283.1 368 C 283.1 363.5 283.6 323.9 284 317 C 284.4 310.1 287.1 308.2 292.3 309.5 C 297.5 310.8 437.7 350.3 437.7 350.3 C 444.8 352.4 448.3 350.9 448.3 338.7 C 448 328.4 442.5 323.7 438.8 320.6 Z" style="fill: rgb(143, 188, 187);" transform="matrix(0.707107, 0.707107, -0.707107, 0.707107, 256.058533, -106.180084)"/>
</svg>